<?xml version="1.0" encoding="utf-8"?>
<!-- Generator: Adobe Illustrator 25.1.0, SVG Export Plug-In . SVG Version: 6.00 Build 0)  -->
<svg version="1.1" id="Layer_1" xmlns="http://www.w3.org/2000/svg" xmlns:xlink="http://www.w3.org/1999/xlink" x="0px" y="0px"
	 viewBox="0 0 432 432" style="enable-background:new 0 0 432 432;" xml:space="preserve">
<style type="text/css">
	.st0{fill-rule:evenodd;clip-rule:evenodd;fill:#58595B;}
	.st1{fill:none;stroke:#FFFFFF;stroke-width:1.0001;stroke-miterlimit:2.6131;}
	.st2{fill:#FFFFFF;}
	.st3{fill-rule:evenodd;clip-rule:evenodd;fill:#FFFFFF;}
	.st4{fill:none;stroke:#FFFFFF;stroke-width:0.216;stroke-miterlimit:2.6131;}
	.st5{fill-rule:evenodd;clip-rule:evenodd;fill:#2E3192;}
	.st6{fill:none;stroke:#FFFFFF;stroke-width:11.9296;stroke-linecap:round;stroke-linejoin:round;stroke-miterlimit:2.6131;}
	.st7{fill-rule:evenodd;clip-rule:evenodd;fill:#ED1C24;}
</style>
<path class="st0" d="M155.59,56.77c10.44-3.96,18.74-6.72,30.81-8.49l5.48-33.55c14.4-1.17,29.16-1.89,44.34-0.3l5.65,33.13
	c11.29,1.78,19.83,3.94,30.47,8.1l21.56-25.81c13.05,6.32,26.18,13.2,38.55,22.3L321.51,83.7c8.12,6.68,15.62,14.11,22.4,22.18
	l30.92-11.04c8.2,12.11,16.19,24.75,22.43,38.92l-24.4,21.25c4.25,11.09,7.39,22.73,9.3,34.8l30.82,2.5
	c1.15,14.66,1.85,29.67,0.3,45.12l-31,5.88c-1.69,11.01-4.42,21.68-8.08,31.9l23.93,20.91c-6.21,13.28-12.97,26.64-21.91,39.23
	L346.6,324.7c-6.84,8.56-14.47,16.43-22.78,23.51l10.43,30.25c-11.9,8.34-24.33,16.47-38.25,22.82l-20.4-24.25
	c-10.01,3.88-20.48,6.81-31.29,8.7l-5.84,31.55c-14.4,1.17-29.16,1.89-44.34,0.3l-5.82-31.75c-10.69-1.81-21.03-4.67-30.95-8.44
	l-20.92,24.78c-13.04-6.32-26.18-13.2-38.55-22.3l10.82-31.19c-8.47-7.15-14.35-15.5-21.92-23.3l-31.28,11.8
	c-8.19-12.11-16.19-24.75-22.43-38.92l25.11-21.87c-3.93-10.75-6.83-22.01-8.57-33.64v3.15l-32.26-6.18
	c-1.15-14.66-1.86-29.67-0.3-45.12l32.56-6.18v2.66c1.72-11.45,4.57-22.53,8.26-33.19l-25.67-21.99
	c6.21-13.27,12.98-26.64,21.91-39.22l32.27,11.18c6.71-8.15,13.73-15.36,21.14-21.84L96.11,53.54c11.9-8.34,24.33-16.47,38.25-22.82
	L155.59,56.77z M186.76,48.16l-0.71,0.24 M242.3,47.55h-0.84 M272.51,55.61l-0.33,0.09 M86.08,108.2l0.67-0.71 M107.82,85.93
	l-0.53,0.15"/>
<path class="st1" d="M155.59,56.77c10.44-3.96,18.74-6.72,30.81-8.49l5.48-33.55c14.4-1.17,29.16-1.89,44.34-0.3l5.65,33.13
	c11.29,1.78,19.83,3.94,30.47,8.1l21.56-25.81c13.05,6.32,26.18,13.2,38.55,22.3L321.51,83.7c8.12,6.68,15.62,14.11,22.4,22.18
	l30.92-11.04c8.2,12.11,16.19,24.75,22.43,38.92l-24.4,21.25c4.25,11.09,7.39,22.73,9.3,34.8l30.82,2.5
	c1.15,14.66,1.85,29.67,0.3,45.12l-31,5.88c-1.69,11.01-4.42,21.68-8.08,31.9l23.93,20.91c-6.21,13.28-12.97,26.64-21.91,39.23
	L346.6,324.7c-6.84,8.56-14.47,16.43-22.78,23.51l10.43,30.25c-11.9,8.34-24.33,16.47-38.25,22.82l-20.4-24.25
	c-10.01,3.88-20.48,6.81-31.29,8.7l-5.84,31.55c-14.4,1.17-29.16,1.89-44.34,0.3l-5.82-31.75c-10.69-1.81-21.03-4.67-30.95-8.44
	l-20.92,24.78c-13.04-6.32-26.18-13.2-38.55-22.3l10.82-31.19c-8.47-7.15-14.35-15.5-21.92-23.3l-31.28,11.8
	c-8.19-12.11-16.19-24.75-22.43-38.92l25.11-21.87c-3.93-10.75-6.83-22.01-8.57-33.64v3.15l-32.26-6.18
	c-1.15-14.66-1.86-29.67-0.3-45.12l32.56-6.18v2.66c1.72-11.45,4.57-22.53,8.26-33.19l-25.67-21.99
	c6.21-13.27,12.98-26.64,21.91-39.22l32.27,11.18c6.71-8.15,13.73-15.36,21.14-21.84L96.11,53.54c11.9-8.34,24.33-16.47,38.25-22.82
	L155.59,56.77z M186.76,48.16l-0.71,0.24 M242.3,47.55h-0.84 M272.51,55.61l-0.33,0.09 M86.08,108.2l0.67-0.71 M107.82,85.93
	l-0.53,0.15"/>
<path class="st2" d="M326.62,140.04l2.28,4.18c-1.81,1.92-2.91,4.03-3.28,6.32c-0.37,2.29,0.04,4.52,1.22,6.68
	c0.71,1.3,1.56,2.19,2.53,2.67c0.97,0.48,1.9,0.47,2.78-0.03c1.36-0.77,1.58-3.12,0.65-7.05c-0.32-1.28-0.55-2.28-0.7-3.03
	c-0.51-2.39-0.85-4.26-1.03-5.61c-0.18-1.36-0.21-2.38-0.11-3.08c0.23-1.65,0.7-3.05,1.44-4.19c0.74-1.14,1.77-2.09,3.1-2.84
	c2.85-1.61,5.75-1.83,8.68-0.67c2.92,1.16,5.35,3.51,7.27,7.05c0.98,1.8,1.73,3.57,2.23,5.33c0.5,1.75,0.79,3.56,0.87,5.42
	l1.86-0.03l2.26,4.15l-9.87,5.57l-2.65-4.87c1.75-1.61,2.76-3.35,3.03-5.23c0.27-1.87-0.2-3.91-1.4-6.11
	c-0.71-1.29-1.57-2.19-2.61-2.7c-1.03-0.51-1.97-0.53-2.81-0.05c-1.27,0.72-1.36,2.86-0.26,6.43c0.26,0.88,0.46,1.56,0.6,2.06
	c1.42,5.03,1.87,8.86,1.35,11.5c-0.52,2.64-2.06,4.69-4.65,6.14c-2.87,1.62-5.76,1.8-8.66,0.56c-2.91-1.25-5.38-3.75-7.42-7.49
	c-0.93-1.71-1.64-3.47-2.12-5.27c-0.49-1.8-0.77-3.69-0.84-5.69l-2.16-0.19l-2.16-3.97L326.62,140.04z M321.61,102.58l-6.19,24.6
	l9.91-10.81c0.89-0.97,1.31-1.68,1.24-2.11c-0.07-0.43-0.5-1.04-1.3-1.8l-1.35-1.28l3.14-3.43l10.45,9.92l-3.14,3.43l-0.84-0.8
	c-0.83-0.79-1.46-1.19-1.9-1.19c-0.43-0.01-1.09,0.46-1.95,1.4l-17.14,18.71l-8.16-7.74l6.65-26.11l-10.84,11.83
	c-0.86,0.94-1.28,1.63-1.24,2.08c0.03,0.45,0.47,1.07,1.29,1.86l1.06,1l-3.14,3.43l-10.49-9.95l3.14-3.43l1.16,1.1
	c0.84,0.8,1.49,1.2,1.94,1.2c0.45,0,1.1-0.46,1.96-1.39l12.1-13.2c0.84-0.92,1.25-1.6,1.22-2.06c-0.03-0.45-0.47-1.09-1.32-1.89
	l-1.16-1.1l3.14-3.43L321.61,102.58z M259.61,81.99c2.53-4.83,5.98-7.83,10.37-8.98c4.39-1.15,9.19-0.31,14.4,2.5
	c5.18,2.8,8.53,6.38,10.04,10.72c1.51,4.34,1,8.94-1.52,13.77c-2.53,4.83-5.98,7.81-10.36,8.95c-4.38,1.14-9.19,0.3-14.41-2.53
	c-5.17-2.8-8.51-6.36-10.02-10.71C256.6,91.37,257.1,86.8,259.61,81.99z M282.07,79.96c-1.94-1.05-3.81-0.94-5.6,0.31
	c-1.79,1.26-3.69,3.81-5.7,7.65c-2.04,3.91-3.08,6.98-3.12,9.2c-0.03,2.22,0.91,3.84,2.83,4.88c1.95,1.06,3.82,0.96,5.6-0.3
	c1.78-1.25,3.68-3.81,5.69-7.66c2.03-3.89,3.06-6.94,3.11-9.18C284.93,82.64,283.99,81,282.07,79.96z M220.22,80.2l4.65,0.67
	c0.42,2.63,1.41,4.79,2.99,6.47c1.58,1.68,3.57,2.68,5.98,3.03c1.45,0.21,2.66,0.06,3.62-0.45c0.96-0.5,1.51-1.26,1.65-2.28
	c0.22-1.57-1.5-3.16-5.15-4.77c-1.19-0.51-2.12-0.93-2.8-1.25c-2.18-1.03-3.86-1.87-5.02-2.54c-1.17-0.67-1.99-1.26-2.48-1.77
	c-1.16-1.18-1.97-2.41-2.42-3.69c-0.45-1.29-0.57-2.7-0.36-4.23c0.45-3.29,2.02-5.78,4.7-7.45c2.67-1.68,5.98-2.23,9.91-1.67
	c2,0.29,3.84,0.75,5.52,1.4c1.67,0.65,3.27,1.5,4.78,2.56l1.1-1.53l4.62,0.66l-1.57,11.38l-5.42-0.78
	c-0.21-2.39-0.97-4.26-2.28-5.61c-1.31-1.34-3.19-2.19-5.64-2.54c-1.44-0.21-2.67-0.04-3.69,0.49c-1.02,0.53-1.6,1.28-1.73,2.25
	c-0.2,1.46,1.43,2.83,4.89,4.08c0.84,0.32,1.5,0.56,1.98,0.75c4.8,1.87,8.08,3.81,9.84,5.82c1.76,2.01,2.44,4.5,2.03,7.48
	c-0.46,3.3-2.05,5.76-4.78,7.37c-2.73,1.61-6.18,2.12-10.35,1.52c-1.9-0.27-3.71-0.75-5.41-1.45c-1.71-0.68-3.36-1.6-4.97-2.74
	l-1.45,1.64l-4.41-0.63L220.22,80.2z M188.63,62.45l15.24,20.11l-2.27-14.6c-0.2-1.31-0.5-2.08-0.87-2.3
	c-0.38-0.21-1.11-0.24-2.19-0.06l-1.82,0.29l-0.72-4.63l14.12-2.28l0.72,4.63l-1.14,0.18c-1.12,0.18-1.82,0.44-2.09,0.79
	c-0.27,0.34-0.31,1.16-0.11,2.42l3.93,25.27l-11.02,1.77l-16.13-21.4l2.49,15.98c0.2,1.27,0.48,2.03,0.85,2.28
	c0.37,0.25,1.12,0.29,2.23,0.11l1.43-0.23l0.72,4.63l-14.17,2.28l-0.72-4.63l1.57-0.25c1.13-0.18,1.84-0.45,2.12-0.82
	c0.28-0.36,0.33-1.17,0.13-2.42l-2.78-17.83c-0.19-1.24-0.47-1.99-0.84-2.24c-0.37-0.26-1.13-0.29-2.28-0.11l-1.57,0.25l-0.72-4.63
	L188.63,62.45z M161.39,106.64l-2.16-4.14l1.29-0.7c1.09-0.59,1.72-1.01,1.9-1.26c0.18-0.25,0.18-0.55,0-0.89
	c-0.12-0.23-0.25-0.44-0.39-0.63c-0.15-0.19-0.29-0.36-0.45-0.54l-2.66-2.58l-7.73,4.18l0.57,3.28c0.07,0.51,0.13,0.9,0.21,1.17
	c0.07,0.28,0.16,0.51,0.26,0.71c0.14,0.26,0.41,0.37,0.84,0.32c0.42-0.05,0.95-0.25,1.59-0.59l1.42-0.77l2.16,4.14l-12.83,6.94
	l-2.16-4.14l1.06-0.57c0.73-0.39,1.22-0.96,1.46-1.7c0.25-0.74,0.28-1.73,0.08-2.99l-3.98-26.16l10.38-5.62l18.21,18.35
	c1.22,1.2,2.09,1.85,2.63,1.95c0.54,0.1,1.22-0.08,2.06-0.53l1.5-0.81l2.16,4.14L161.39,106.64z M155.38,92.47l-7.23-7.43
	l2.18,10.17L155.38,92.47z M107.64,105.43l3.14,3.43l-0.4,0.38c-0.71,0.68-1.08,1.23-1.09,1.67c-0.01,0.44,0.4,1.11,1.24,2.03
	l4,4.36l6.59-6.25l-4-4.36c-0.84-0.91-1.47-1.38-1.91-1.39c-0.43-0.02-1.01,0.32-1.73,1l-0.38,0.36l-3.14-3.43l13.18-12.51
	l3.14,3.43l-1.2,1.14c-0.83,0.78-1.26,1.4-1.3,1.84c-0.04,0.44,0.37,1.13,1.23,2.07l12.11,13.21c0.86,0.94,1.51,1.41,1.95,1.41
	c0.44,0,1.08-0.39,1.9-1.18l1.21-1.14l3.14,3.43l-13.18,12.51l-3.14-3.43l0.38-0.36c0.7-0.67,1.06-1.23,1.08-1.68
	c0.02-0.45-0.39-1.14-1.23-2.06l-4.97-5.42l-6.59,6.25l4.97,5.42c0.84,0.92,1.48,1.38,1.92,1.41c0.44,0.02,1.02-0.3,1.72-0.97
	l0.4-0.38l3.14,3.43l-13.18,12.51l-3.14-3.43l1.19-1.13c0.8-0.76,1.23-1.35,1.31-1.78c0.07-0.44-0.34-1.16-1.26-2.16l-12.11-13.21
	c-0.87-0.95-1.52-1.41-1.94-1.41c-0.42,0.01-1.06,0.41-1.9,1.21l-1.19,1.13l-3.14-3.43L107.64,105.43z M91.13,165.55l2.28-4.18
	c2.57,0.54,4.9,0.38,7.01-0.52c2.11-0.9,3.74-2.43,4.92-4.59c0.71-1.3,1-2.51,0.89-3.6c-0.12-1.09-0.62-1.89-1.5-2.39
	c-1.36-0.77-3.44,0.29-6.22,3.18c-0.9,0.95-1.61,1.68-2.15,2.21c-1.72,1.71-3.1,3-4.13,3.86c-1.04,0.87-1.88,1.44-2.51,1.72
	c-1.5,0.68-2.91,1.01-4.25,0.97c-1.35-0.04-2.68-0.42-4.01-1.17c-2.85-1.61-4.58-3.99-5.15-7.13c-0.58-3.14,0.09-6.48,2.02-10.01
	c0.98-1.8,2.06-3.38,3.26-4.75c1.19-1.36,2.54-2.57,4.06-3.62l-1.01-1.59l2.26-4.15l9.87,5.57l-2.65,4.87
	c-2.27-0.66-4.26-0.61-5.97,0.16c-1.7,0.76-3.15,2.24-4.35,4.45c-0.7,1.29-0.99,2.52-0.87,3.68c0.13,1.16,0.6,1.98,1.45,2.45
	c1.27,0.72,3.11-0.34,5.49-3.19c0.6-0.69,1.06-1.23,1.39-1.61c3.44-3.89,6.39-6.31,8.87-7.26c2.48-0.95,5-0.7,7.58,0.75
	c2.87,1.62,4.55,4.02,5.05,7.18c0.5,3.17-0.27,6.63-2.31,10.38c-0.93,1.71-2.02,3.26-3.27,4.62c-1.24,1.38-2.67,2.62-4.29,3.74
	l0.99,1.97l-2.16,3.97L91.13,165.55z"/>
<path class="st2" d="M314.84,295.61l8.41,8.87l-3.7,3.64c-1.33-0.92-2.44-1.57-3.32-1.95c-0.88-0.38-1.7-0.58-2.45-0.6
	c-0.88-0.02-1.72,0.2-2.54,0.63c-0.82,0.44-1.94,1.35-3.36,2.75l-0.7,0.68l-3,2.95l6.19,6.53l0.9-0.88
	c1.06-1.04,1.55-2.03,1.48-2.97c-0.07-0.94-0.73-2.07-1.99-3.4l-0.2-0.21l2.93-2.88l10.3,10.85l-2.93,2.88
	c-1.62-1.62-2.85-2.49-3.7-2.6c-0.85-0.13-1.82,0.35-2.9,1.41l-0.94,0.92l7.03,7.41l4.14-4.07c1.6-1.58,2.61-2.76,3.04-3.56
	c0.42-0.79,0.57-1.59,0.45-2.39c-0.18-0.92-0.54-1.9-1.11-2.92c-0.56-1.02-1.4-2.19-2.5-3.49l3.83-3.77l9.32,9.82l-24.68,24.25
	l-3.2-3.37l1.17-1.15c0.77-0.76,1.19-1.36,1.26-1.78c0.07-0.42-0.32-1.08-1.15-1.96l-0.17-0.18l-12.32-12.99
	c-0.88-0.92-1.53-1.38-1.96-1.37c-0.43,0.01-1.06,0.42-1.88,1.23l-1.14,1.12l-3.2-3.37L314.84,295.61z M273.06,344.54l2.52-1.36
	c1.76-0.95,2.86-1.92,3.27-2.88c0.42-0.96,0.27-2.12-0.43-3.46c-0.77-1.48-1.64-2.34-2.62-2.58c-0.97-0.24-2.29,0.1-3.96,1
	l-2.83,1.53L273.06,344.54z M269.14,360.13l-8.33-15.95c-0.6-1.14-1.1-1.76-1.52-1.87c-0.41-0.11-1.13,0.11-2.15,0.66l-1.44,0.78
	l-2.15-4.12l19.77-10.69c3.49-1.89,6.41-2.7,8.76-2.42c2.35,0.27,4.16,1.63,5.44,4.07c0.86,1.64,1.05,3.31,0.58,5
	c-0.48,1.7-1.57,3.27-3.28,4.73c2.08-0.82,3.72-0.92,4.91-0.33c1.2,0.6,2.71,2.64,4.52,6.11c0.55,1.05,1.02,1.73,1.39,2.04
	c0.39,0.31,0.78,0.36,1.19,0.14c0.39-0.21,0.54-0.61,0.47-1.21c-0.07-0.59-0.37-1.4-0.9-2.41c-0.05-0.1-0.14-0.26-0.28-0.48
	c-0.13-0.22-0.23-0.38-0.29-0.5l2.91-1.57c0.07,0.13,0.17,0.32,0.33,0.58c0.15,0.25,0.26,0.44,0.33,0.57
	c1.42,2.72,1.9,4.99,1.44,6.82c-0.46,1.82-1.91,3.39-4.37,4.72c-2.6,1.41-4.79,1.88-6.55,1.42c-1.77-0.46-3.28-1.89-4.54-4.3
	l-1.28-2.44c-1.02-1.95-1.93-3.05-2.71-3.31c-0.78-0.26-1.98,0.05-3.58,0.91l-2.57,1.39l3.42,6.54c0.6,1.14,1.11,1.77,1.53,1.88
	c0.43,0.11,1.14-0.1,2.13-0.63l1.63-0.88l2.16,4.14l-17.28,9.35l-2.16-4.14l1.44-0.78c1.01-0.54,1.58-1.03,1.73-1.46
	C269.96,362.05,269.73,361.27,269.14,360.13z M215.74,361.02c-0.75-5.42,0.32-9.91,3.2-13.47c2.88-3.56,7.25-5.75,13.09-6.59
	c5.81-0.83,10.58,0.05,14.31,2.67c3.73,2.61,5.97,6.63,6.72,12.05c0.75,5.42-0.32,9.9-3.21,13.44c-2.89,3.54-7.27,5.74-13.12,6.57
	c-5.8,0.83-10.56-0.06-14.29-2.67C218.72,370.41,216.48,366.41,215.74,361.02z M232.74,345.94c-2.18,0.31-3.62,1.51-4.35,3.6
	c-0.72,2.09-0.79,5.29-0.19,9.6c0.61,4.39,1.54,7.49,2.79,9.31c1.25,1.81,2.96,2.56,5.12,2.26c2.19-0.31,3.64-1.51,4.36-3.59
	c0.72-2.08,0.78-5.28,0.18-9.6c-0.6-4.36-1.53-7.45-2.79-9.28C236.6,346.39,234.9,345.63,232.74,345.94z M189.44,340.45l-0.8,4.61
	l-0.53-0.1c-0.96-0.17-1.62-0.13-1.96,0.12c-0.35,0.25-0.63,1-0.84,2.23l-1.02,5.87l8.88,1.59l1.02-5.87
	c0.21-1.23,0.2-2.03-0.05-2.39c-0.25-0.36-0.86-0.63-1.82-0.8l-0.51-0.09l0.8-4.61l17.75,3.18l-0.8,4.61l-1.62-0.29
	c-1.11-0.2-1.85-0.18-2.22,0.05c-0.37,0.23-0.66,0.98-0.88,2.24l-3.08,17.79c-0.22,1.27-0.2,2.08,0.07,2.43
	c0.27,0.36,0.96,0.64,2.07,0.84l1.62,0.29l-0.8,4.61l-17.75-3.18l0.8-4.61l0.51,0.09c0.95,0.17,1.6,0.12,1.97-0.14
	c0.36-0.26,0.66-1,0.87-2.24l1.26-7.3l-8.88-1.59l-1.27,7.3c-0.21,1.24-0.2,2.03,0.05,2.4c0.25,0.37,0.85,0.64,1.79,0.81l0.53,0.1
	l-0.8,4.61l-17.75-3.18l0.8-4.61l1.61,0.29c1.07,0.19,1.8,0.19,2.19-0.01c0.39-0.21,0.7-0.98,0.93-2.32l3.08-17.79
	c0.22-1.28,0.2-2.08-0.06-2.42c-0.26-0.34-0.96-0.61-2.1-0.82l-1.61-0.29l0.8-4.61L189.44,340.45z M139.97,355.97l2.3-4.06
	l1.27,0.74c1.07,0.63,1.75,0.95,2.06,0.97c0.31,0.02,0.55-0.13,0.74-0.47c0.13-0.23,0.24-0.45,0.31-0.67
	c0.08-0.23,0.15-0.44,0.21-0.68l0.74-3.67l-7.58-4.45l-2.43,2.23c-0.39,0.33-0.68,0.6-0.86,0.8c-0.19,0.21-0.34,0.41-0.45,0.6
	c-0.15,0.26-0.09,0.55,0.18,0.89c0.27,0.34,0.71,0.69,1.34,1.06l1.39,0.82l-2.3,4.06l-12.59-7.4l2.3-4.06l1.04,0.61
	c0.71,0.42,1.44,0.54,2.19,0.37c0.74-0.18,1.59-0.68,2.54-1.52l19.69-17.3l10.18,5.98l-5.64,25.44c-0.35,1.69-0.44,2.79-0.24,3.31
	c0.2,0.52,0.71,1.02,1.53,1.5l1.48,0.87l-2.3,4.06L139.97,355.97z M148.59,343.27l2.36-10.18l-7.32,7.27L148.59,343.27z
	 M131.09,309.04l-3.37,3.19l-1.26-1.38c-0.73-0.8-1.31-1.23-1.72-1.31c-0.41-0.07-1.05,0.3-1.91,1.12l-0.17,0.16l-14.95,14.19
	l1.49,1.62c1.38,1.5,2.43,2.49,3.14,2.96c0.73,0.47,1.44,0.7,2.18,0.69c0.9,0,1.88-0.28,2.93-0.84c1.05-0.56,2.34-1.49,3.88-2.8
	l3.44,3.75l-9.92,9.42l-20.88-22.79l3.37-3.19l1.11,1.21c0.78,0.85,1.39,1.29,1.83,1.32c0.44,0.03,1.12-0.39,2.05-1.27l12.98-12.31
	c0.92-0.87,1.38-1.53,1.38-1.97c0-0.44-0.4-1.08-1.18-1.94l-1.11-1.21l3.37-3.19L131.09,309.04z"/>
<path class="st3" d="M216,102.38c62.01,0,112.58,51.46,112.58,114.55c0,63.09-50.57,114.55-112.58,114.55
	c-62.01,0-112.58-51.46-112.58-114.55C103.42,153.83,153.99,102.38,216,102.38z"/>
<path class="st4" d="M216,102.38c62.01,0,112.58,51.46,112.58,114.55c0,63.09-50.57,114.55-112.58,114.55
	c-62.01,0-112.58-51.46-112.58-114.55C103.42,153.83,153.99,102.38,216,102.38z"/>
<path class="st5" d="M249.55,119.97c-50.41-12.29-113.18,22.54-115.35,75.85l27.32,0.54c-0.19-31.97,40.37-70.14,84.95-66.67
	c19.86,1.55,38.92,11.54,51.32,26.25C297.96,156.13,281.34,127.72,249.55,119.97"/>
<path class="st5" d="M202.73,195.82l-28.29-0.54c7.5-48.96,77.62-76.46,113.65-38.57C252.27,137.87,210.59,157.66,202.73,195.82"/>
<path class="st5" d="M284.17,162.61c-19.77-1.02-32.34,9.64-34.18,33.2h-33.65C220.6,172.41,255.13,147.72,284.17,162.61"/>
<path class="st5" d="M182.45,313.88c50.41,12.29,113.18-22.54,115.35-75.85l-27.32-0.54c0.19,31.97-40.37,70.14-84.95,66.67
	c-19.86-1.55-38.92-11.54-51.32-26.25C134.04,277.72,150.66,306.14,182.45,313.88"/>
<path class="st5" d="M180.59,283.75c25.83-3.24,44.16-23.81,48.67-45.72l28.29,0.54c-4.81,31.41-38.9,58.7-74.16,56.24
	c-14.94-1.04-29.99-7.67-39.49-17.66C156.69,283.87,166.58,285.51,180.59,283.75"/>
<path class="st5" d="M147.83,271.24c19.77,1.02,32.34-9.64,34.18-33.2h33.65C211.41,261.45,176.87,286.14,147.83,271.24"/>
<path class="st6" d="M16.7,188.75h398.33c2.8,0,3.45,2.53,3.45,5.61v45.14c0,3.08-0.66,5.61-3.45,5.61H16.7
	c-2.8,0-3.19-2.52-3.19-5.61v-45.14C13.51,191.27,13.9,188.75,16.7,188.75z"/>
<path class="st7" d="M16.7,188.75h398.34c2.8,0,3.45,2.53,3.45,5.61v45.14c0,3.08-0.66,5.61-3.45,5.61H16.7
	c-2.8,0-3.19-2.52-3.19-5.61v-45.14C13.51,191.27,13.9,188.75,16.7,188.75"/>
<path class="st2" d="M392.17,231.67l-3.41-8.58l2.97-1.71c1.32,2.15,2.69,3.79,4.14,4.94c1.45,1.16,2.85,1.73,4.21,1.73
	c0.99,0,1.79-0.29,2.4-0.88c0.62-0.59,0.93-1.35,0.93-2.27c0-1.41-1.3-2.73-3.88-3.97c-0.4-0.2-0.71-0.34-0.93-0.44
	c-3.7-1.82-6.14-3.46-7.34-4.91c-1.2-1.46-1.8-3.26-1.8-5.42c0-2.35,0.77-4.37,2.31-6.05c1.54-1.68,3.36-2.52,5.47-2.52
	c0.87,0,1.68,0.13,2.41,0.39c0.74,0.26,1.45,0.66,2.15,1.21l0.14-0.98h2.35l3.07,7.91l-2.97,1.72c-1.04-2.04-2.13-3.57-3.27-4.59
	c-1.13-1.01-2.32-1.52-3.56-1.52c-0.87,0-1.56,0.24-2.06,0.72c-0.51,0.47-0.76,1.13-0.76,1.95c0,1.54,1.7,3.11,5.1,4.73
	c0.71,0.33,1.25,0.59,1.62,0.77c2.9,1.43,4.87,2.82,5.9,4.18c1.04,1.36,1.56,3.06,1.56,5.12c0,2.63-0.81,4.78-2.43,6.48
	c-1.62,1.7-3.67,2.55-6.17,2.55c-1.04,0-1.95-0.14-2.72-0.42c-0.77-0.28-1.54-0.73-2.31-1.34l-0.17,1.2H392.17z M362.79,231.67v-3.7
	c0.02,0,0.05,0.01,0.09,0.02c0.04,0.01,0.06,0.02,0.08,0.02c1.3,0,2.1-0.19,2.42-0.57c0.32-0.38,0.48-1.33,0.48-2.83v-15.36
	c0-1.51-0.16-2.45-0.47-2.83c-0.31-0.38-0.98-0.57-2.02-0.57h-0.58v-3.66h11.61v3.66h-0.25c-1,0-1.63,0.18-1.87,0.54
	c-0.25,0.35-0.37,1.31-0.37,2.86v5.76l4.77-6.66c0.33-0.47,0.57-0.83,0.71-1.1c0.14-0.27,0.21-0.47,0.21-0.63
	c0-0.27-0.13-0.46-0.4-0.59c-0.27-0.12-0.69-0.19-1.28-0.19h-0.32v-3.66h11.35v3.66h-0.28c-1.16,0-2.13,0.21-2.92,0.62
	c-0.8,0.42-1.71,1.28-2.73,2.58l-4.08,5.25l6.11,9.98l0.02,0.02c1.5,2.45,3.19,3.67,5.09,3.67h0.39v3.7h-12.73v-3.7h0.41
	c0.42,0,0.75-0.07,0.98-0.21c0.23-0.14,0.34-0.34,0.34-0.61c0-0.17-0.04-0.37-0.14-0.6c-0.1-0.24-0.27-0.57-0.53-1l-4.97-8.08v7.14
	c0,1.54,0.13,2.49,0.38,2.86c0.25,0.37,0.78,0.55,1.59,0.55c0.07,0,0.17-0.01,0.29-0.02c0.13-0.01,0.2-0.02,0.24-0.02v3.7H362.79z
	 M347.13,215.49h0.8c1.99,0,3.41-0.35,4.24-1.05c0.84-0.7,1.25-1.84,1.25-3.43c0-1.59-0.46-2.8-1.39-3.62
	c-0.93-0.82-2.29-1.23-4.08-1.23h-0.83V215.49z M338.01,231.67v-3.7c0.02,0,0.05,0.01,0.09,0.02c0.04,0.01,0.06,0.02,0.08,0.02
	c1.3,0,2.1-0.19,2.42-0.57c0.32-0.38,0.48-1.32,0.48-2.83v-15.37c0-1.51-0.16-2.45-0.47-2.83c-0.31-0.38-0.98-0.57-2.02-0.57h-0.58
	v-3.66h10.06c1.69,0,3.06,0.09,4.1,0.29c1.04,0.19,1.98,0.49,2.8,0.91c1.47,0.77,2.63,1.84,3.46,3.23c0.84,1.38,1.25,2.91,1.25,4.57
	c0,1.78-0.47,3.34-1.4,4.7c-0.93,1.35-2.19,2.25-3.77,2.7l2.97,6.85c0.42,1,0.9,1.66,1.42,1.99c0.52,0.34,1.59,0.52,3.2,0.55v3.7
	h-8.67l-4.95-12.31h-1.34v5.25c0,1.51,0.15,2.45,0.46,2.83c0.31,0.38,0.94,0.57,1.89,0.57c0.08,0,0.22-0.01,0.42-0.02
	c0.19-0.01,0.34-0.02,0.45-0.02v3.7H338.01z M315.22,216.92c0-4.68,0.96-8.4,2.88-11.17c1.92-2.78,4.47-4.16,7.64-4.16
	c3.2,0,5.76,1.38,7.68,4.16c1.92,2.77,2.88,6.49,2.88,11.17c0,4.54-0.99,8.23-2.97,11.08c-1.98,2.85-4.51,4.28-7.6,4.28
	c-3.07,0-5.59-1.43-7.57-4.28C316.21,225.15,315.22,221.46,315.22,216.92z M321.91,216.92c0,3.55,0.34,6.32,1.03,8.31
	c0.69,2,1.64,3,2.84,3c1.19,0,2.13-1,2.81-3.01c0.68-2.02,1.02-4.78,1.02-8.3c0-3.56-0.34-6.33-1.02-8.31
	c-0.67-1.99-1.62-2.98-2.81-2.98c-1.17,0-2.1,1.01-2.81,3.03C322.27,210.7,321.91,213.45,321.91,216.92z M289.64,231.67l-6.63-22.38
	l-0.04-0.1c-0.65-2.23-1.78-3.34-3.39-3.34h-0.55v-3.66h11.53v3.66c-0.04,0-0.09,0.01-0.17,0.02c-0.08,0.01-0.14,0.02-0.17,0.02
	c-0.51,0-0.86,0.06-1.05,0.2c-0.19,0.13-0.29,0.37-0.29,0.7c0,0.14,0.03,0.36,0.1,0.65c0.07,0.29,0.19,0.81,0.38,1.55l3.25,12
	l2.35-9.12l-1.12-4.06c-0.25-0.85-0.51-1.39-0.8-1.63c-0.29-0.23-0.75-0.34-1.4-0.34v-3.66h10.53l-0.02,3.66
	c-0.99,0.03-1.62,0.11-1.87,0.27c-0.26,0.14-0.39,0.43-0.39,0.85c0,0.22,0.02,0.45,0.07,0.72c0.05,0.27,0.12,0.59,0.21,0.97
	l3.11,11.97l3-11.36c0.14-0.52,0.25-0.96,0.33-1.33c0.08-0.37,0.11-0.65,0.11-0.86c0-0.42-0.14-0.72-0.41-0.88
	c-0.28-0.17-1.02-0.28-2.24-0.34v-3.66h9.84v3.66c-0.04,0-0.09,0.01-0.17,0.02c-0.08,0.01-0.14,0.02-0.19,0.02
	c-0.83,0-1.47,0.17-1.91,0.52c-0.45,0.34-0.77,0.92-0.98,1.73l-6.29,23.53h-3.76l-3.62-13.26l-3.51,13.26H289.64z M265.05,229.25
	c-0.55,0.09-1.07,0.19-1.54,0.32c-0.47,0.12-0.88,0.27-1.24,0.42c-0.25,0.11-0.63,0.32-1.15,0.61c-1.95,1.12-3.74,1.68-5.37,1.68
	c-1.22,0-2.45-0.31-3.69-0.93c-1.24-0.62-2.36-1.49-3.36-2.6c-1.32-1.46-2.33-3.18-3.02-5.2c-0.69-2.01-1.04-4.2-1.04-6.58
	c0-2.06,0.26-4,0.78-5.82c0.52-1.82,1.27-3.45,2.26-4.89c0.99-1.44,2.15-2.58,3.5-3.41c1.34-0.83,2.67-1.25,3.99-1.25
	c0.8,0,1.54,0.14,2.22,0.42c0.68,0.28,1.37,0.73,2.08,1.34l0.25-1.15h2.65l2.46,7.75l-3.29,1.76c-0.94-1.9-1.9-3.36-2.9-4.38
	c-0.99-1.01-1.96-1.52-2.89-1.52c-1.3,0-2.35,0.97-3.15,2.9c-0.8,1.94-1.2,4.51-1.2,7.73c0,3.57,0.46,6.41,1.37,8.51
	c0.92,2.1,2.14,3.15,3.66,3.15c0.81,0,1.4-0.27,1.78-0.82c0.38-0.55,0.57-1.41,0.57-2.59v-3.54c0-0.97-0.16-1.64-0.48-2
	c-0.32-0.36-0.9-0.55-1.77-0.55c-0.07,0-0.19,0.01-0.36,0.04c-0.16,0.02-0.3,0.03-0.4,0.03v-4.09h11.68v4.09h-0.3
	c-0.94,0-1.53,0.16-1.77,0.49c-0.24,0.33-0.36,1.15-0.36,2.47V229.25z M219.47,231.67v-3.7c0.02,0,0.07,0.01,0.13,0.02
	c0.05,0.01,0.1,0.02,0.12,0.02c1.37,0,2.22-0.18,2.55-0.55c0.33-0.37,0.49-1.32,0.49-2.86v-15.36c0-1.54-0.16-2.49-0.49-2.86
	c-0.33-0.37-1.05-0.55-2.16-0.55h-0.64v-3.66h10.45l6.33,17.57v-10.51c0-1.51-0.16-2.46-0.48-2.86c-0.32-0.39-0.97-0.59-1.95-0.59
	c-0.08,0-0.22,0.01-0.41,0.02c-0.19,0.01-0.33,0.02-0.42,0.02v-3.66h10.27v3.66h-0.25c-1.37,0-2.22,0.18-2.55,0.55
	c-0.33,0.37-0.49,1.32-0.49,2.86v22.42h-4.96l-8.53-23.32v16.25c0,1.47,0.19,2.4,0.57,2.78c0.39,0.39,1.24,0.58,2.54,0.58h1.04v3.7
	H219.47z M206.12,231.67v-3.7c0.02,0,0.05,0.01,0.09,0.02c0.04,0.01,0.06,0.02,0.08,0.02c1.3,0,2.1-0.19,2.42-0.57
	c0.32-0.38,0.48-1.33,0.48-2.83v-15.36c0-1.51-0.16-2.45-0.47-2.83c-0.31-0.38-0.98-0.57-2.02-0.57h-0.58v-3.66h12.19v3.66h-0.17
	c-1.3,0-2.1,0.19-2.42,0.57c-0.32,0.38-0.48,1.33-0.48,2.83v15.36c0,1.51,0.16,2.45,0.47,2.83c0.31,0.38,0.98,0.57,2.02,0.57
	c0.13,0,0.26-0.01,0.38-0.02c0.13-0.01,0.19-0.02,0.2-0.02v3.7H206.12z M190.46,215.49h0.8c1.99,0,3.41-0.35,4.24-1.05
	c0.84-0.7,1.25-1.84,1.25-3.43c0-1.59-0.46-2.8-1.39-3.62c-0.93-0.82-2.28-1.23-4.08-1.23h-0.83V215.49z M181.34,231.67v-3.7
	c0.02,0,0.05,0.01,0.09,0.02c0.04,0.01,0.06,0.02,0.08,0.02c1.3,0,2.1-0.19,2.42-0.57c0.32-0.38,0.48-1.32,0.48-2.83v-15.37
	c0-1.51-0.16-2.45-0.47-2.83c-0.31-0.38-0.98-0.57-2.02-0.57h-0.58v-3.66h10.06c1.69,0,3.06,0.09,4.1,0.29
	c1.04,0.19,1.98,0.49,2.8,0.91c1.47,0.77,2.63,1.84,3.46,3.23c0.84,1.38,1.25,2.91,1.25,4.57c0,1.78-0.47,3.34-1.4,4.7
	c-0.93,1.35-2.19,2.25-3.77,2.7l2.97,6.85c0.42,1,0.9,1.66,1.42,1.99c0.52,0.34,1.59,0.52,3.2,0.55v3.7h-8.67l-4.95-12.31h-1.34
	v5.25c0,1.51,0.15,2.45,0.46,2.83c0.31,0.38,0.94,0.57,1.89,0.57c0.08,0,0.22-0.01,0.42-0.02c0.19-0.01,0.34-0.02,0.45-0.02v3.7
	H181.34z M157.98,231.67v-3.7c0.02,0,0.05,0.01,0.09,0.02c0.04,0.01,0.06,0.02,0.08,0.02c1.3,0,2.1-0.19,2.42-0.57
	c0.32-0.38,0.48-1.32,0.48-2.83v-15.36c0-1.51-0.16-2.45-0.47-2.83c-0.31-0.38-0.98-0.57-2.02-0.57h-0.58v-3.66h17.88l3.53,7.83
	l-3.07,1.59c-0.9-1.99-1.99-3.42-3.25-4.31c-1.26-0.89-2.83-1.33-4.7-1.33h-1.27v8.61h0.62c0.98,0,1.62-0.19,1.94-0.58
	c0.32-0.39,0.51-1.51,0.58-3.38h3.15v12.18h-3.15c0-1.84-0.17-2.99-0.51-3.49c-0.33-0.49-1.02-0.73-2.06-0.73h-0.58v9.3h1.34
	c2.21,0,3.98-0.47,5.32-1.41c1.33-0.95,2.51-2.55,3.55-4.83l3.1,1.21l-3.61,8.82H157.98z M134.61,231.67v-3.7
	c0.02,0,0.05,0.01,0.09,0.02c0.04,0.01,0.06,0.02,0.08,0.02c1.3,0,2.1-0.19,2.42-0.57c0.32-0.38,0.48-1.32,0.48-2.83v-15.36
	c0-1.51-0.16-2.45-0.47-2.83c-0.31-0.38-0.98-0.57-2.02-0.57h-0.58v-3.66h17.88l3.53,7.83l-3.07,1.59c-0.9-1.99-1.99-3.42-3.25-4.31
	c-1.26-0.89-2.83-1.33-4.7-1.33h-1.27v8.61h0.62c0.98,0,1.62-0.19,1.94-0.58c0.32-0.39,0.51-1.51,0.58-3.38h3.15v12.18h-3.15
	c0-1.84-0.17-2.99-0.51-3.49c-0.33-0.49-1.02-0.73-2.06-0.73h-0.58v9.3h1.34c2.21,0,3.98-0.47,5.32-1.41
	c1.33-0.95,2.51-2.55,3.55-4.83l3.1,1.21l-3.61,8.82H134.61z M109.72,231.67v-3.7c0.02,0,0.07,0.01,0.13,0.02
	c0.05,0.01,0.1,0.02,0.12,0.02c1.37,0,2.22-0.18,2.55-0.55c0.33-0.37,0.49-1.32,0.49-2.86v-15.36c0-1.54-0.16-2.49-0.49-2.86
	c-0.33-0.37-1.05-0.55-2.16-0.55h-0.64v-3.66h10.45l6.33,17.57v-10.51c0-1.51-0.16-2.46-0.48-2.86c-0.32-0.39-0.97-0.59-1.95-0.59
	c-0.08,0-0.22,0.01-0.41,0.02c-0.19,0.01-0.33,0.02-0.42,0.02v-3.66h10.27v3.66h-0.25c-1.37,0-2.22,0.18-2.55,0.55
	c-0.33,0.37-0.49,1.32-0.49,2.86v22.42h-4.96l-8.53-23.32v16.25c0,1.47,0.19,2.4,0.57,2.78c0.39,0.39,1.24,0.58,2.54,0.58h1.04v3.7
	H109.72z M96.37,231.67v-3.7c0.02,0,0.05,0.01,0.09,0.02c0.04,0.01,0.06,0.02,0.08,0.02c1.3,0,2.1-0.19,2.42-0.57
	c0.32-0.38,0.48-1.33,0.48-2.83v-15.36c0-1.51-0.16-2.45-0.47-2.83c-0.31-0.38-0.98-0.57-2.02-0.57h-0.58v-3.66h12.19v3.66h-0.18
	c-1.3,0-2.1,0.19-2.42,0.57c-0.32,0.38-0.48,1.33-0.48,2.83v15.36c0,1.51,0.16,2.45,0.47,2.83c0.31,0.38,0.98,0.57,2.02,0.57
	c0.13,0,0.26-0.01,0.38-0.02c0.13-0.01,0.19-0.02,0.21-0.02v3.7H96.37z M92.49,229.25c-0.55,0.09-1.07,0.19-1.54,0.32
	c-0.47,0.12-0.88,0.27-1.24,0.42c-0.25,0.11-0.63,0.32-1.15,0.61c-1.95,1.12-3.74,1.68-5.37,1.68c-1.22,0-2.45-0.31-3.69-0.93
	c-1.24-0.62-2.36-1.49-3.36-2.6c-1.32-1.46-2.33-3.18-3.02-5.2c-0.69-2.01-1.04-4.2-1.04-6.58c0-2.06,0.26-4,0.78-5.82
	c0.52-1.82,1.27-3.45,2.26-4.89c0.99-1.44,2.15-2.58,3.5-3.41c1.34-0.83,2.67-1.25,3.99-1.25c0.8,0,1.54,0.14,2.22,0.42
	c0.68,0.28,1.37,0.73,2.08,1.34l0.25-1.15h2.65l2.46,7.75l-3.29,1.76c-0.94-1.9-1.9-3.36-2.9-4.38c-0.99-1.01-1.96-1.52-2.89-1.52
	c-1.3,0-2.35,0.97-3.15,2.9c-0.8,1.94-1.2,4.51-1.2,7.73c0,3.57,0.46,6.41,1.37,8.51c0.92,2.1,2.14,3.15,3.66,3.15
	c0.81,0,1.4-0.27,1.78-0.82c0.38-0.55,0.57-1.41,0.57-2.59v-3.54c0-0.97-0.16-1.64-0.48-2c-0.32-0.36-0.9-0.55-1.77-0.55
	c-0.07,0-0.19,0.01-0.36,0.04c-0.16,0.02-0.3,0.03-0.4,0.03v-4.09h11.68v4.09h-0.3c-0.94,0-1.53,0.16-1.77,0.49
	c-0.24,0.33-0.36,1.15-0.36,2.47V229.25z M46.91,231.67v-3.7c0.02,0,0.07,0.01,0.13,0.02c0.05,0.01,0.1,0.02,0.12,0.02
	c1.37,0,2.22-0.18,2.55-0.55c0.33-0.37,0.49-1.32,0.49-2.86v-15.36c0-1.54-0.16-2.49-0.49-2.86c-0.33-0.37-1.05-0.55-2.16-0.55
	h-0.64v-3.66h10.45l6.33,17.57v-10.51c0-1.51-0.16-2.46-0.48-2.86c-0.32-0.39-0.97-0.59-1.95-0.59c-0.08,0-0.22,0.01-0.41,0.02
	c-0.19,0.01-0.33,0.02-0.42,0.02v-3.66h10.27v3.66h-0.25c-1.37,0-2.22,0.18-2.55,0.55c-0.33,0.37-0.49,1.32-0.49,2.86v22.42h-4.96
	l-8.53-23.32v16.25c0,1.47,0.19,2.4,0.57,2.78c0.39,0.39,1.24,0.58,2.54,0.58h1.04v3.7H46.91z M23.76,231.67v-3.7
	c0.02,0,0.05,0.01,0.09,0.02c0.04,0.01,0.06,0.02,0.08,0.02c1.3,0,2.1-0.19,2.42-0.57c0.32-0.38,0.48-1.32,0.48-2.83v-15.36
	c0-1.51-0.16-2.45-0.47-2.83c-0.31-0.38-0.98-0.57-2.02-0.57h-0.58v-3.66h17.88l3.53,7.83l-3.07,1.59c-0.9-1.99-1.99-3.42-3.25-4.31
	c-1.26-0.89-2.83-1.33-4.7-1.33h-1.27v8.61h0.62c0.98,0,1.62-0.19,1.94-0.58c0.32-0.39,0.51-1.51,0.58-3.38h3.15v12.18h-3.15
	c0-1.84-0.17-2.99-0.51-3.49c-0.33-0.49-1.02-0.73-2.06-0.73h-0.59v9.3h1.34c2.21,0,3.99-0.47,5.32-1.41
	c1.33-0.95,2.51-2.55,3.55-4.83l3.1,1.21l-3.61,8.82H23.76z"/>
</svg>
